HIERARCHY
ROOT Hips
{
  OFFSET 54.2276 95.6836 13.9603
  CHANNELS 6 Xposition Yposition Zposition Zrotation Xrotation Yrotation
  JOINT spine
  {
    OFFSET 0 7.96568 0.458067
    CHANNELS 3 Zrotation Xrotation Yrotation
    JOINT spine1
    {
      OFFSET 0 10.2431 0
      CHANNELS 3 Zrotation Xrotation Yrotation
      JOINT spine2
      {
        OFFSET 0 9.81475 0
        CHANNELS 3 Zrotation Xrotation Yrotation
        JOINT Neck
        {
          OFFSET 0 25.1986 1.20138
          CHANNELS 3 Zrotation Xrotation Yrotation
          JOINT Head
          {
            OFFSET 0 7.61315 0
            CHANNELS 3 Zrotation Xrotation Yrotation
            End Site
            {
              OFFSET 0 18.4281 -6.07733
            }
          }
        }
        JOINT RightShoulder
        {
          OFFSET -4.1327 10.5992 -0.575451
          CHANNELS 3 Zrotation Xrotation Yrotation
          JOINT RightArm
          {
            OFFSET 0 13.9018 0
            CHANNELS 3 Zrotation Xrotation Yrotation
            JOINT RightArmRoll
            {
              OFFSET 0 7.01789 0
              CHANNELS 3 Zrotation Xrotation Yrotation
              JOINT RightForeArm
              {
                OFFSET 0 20.4406 0
                CHANNELS 3 Zrotation Xrotation Yrotation
                JOINT RightForeArmRoll
                {
                  OFFSET 0 7.87516 0
                  CHANNELS 3 Zrotation Xrotation Yrotation
                  JOINT RightHand
                  {
                    OFFSET 0 15.8037 0
                    CHANNELS 3 Zrotation Xrotation Yrotation
                    End Site
                    {
                      OFFSET 0 0 0
                    }
                  }
                }
              }
            }
          }
        }
        JOINT LeftShoulder
        {
          OFFSET 4.1327 10.5992 -0.575451
          CHANNELS 3 Zrotation Xrotation Yrotation
          JOINT LeftArm
          {
            OFFSET 0 13.9018 0
            CHANNELS 3 Zrotation Xrotation Yrotation
            JOINT LeftArmRoll
            {
              OFFSET 0 7.01789 0
              CHANNELS 3 Zrotation Xrotation Yrotation
              JOINT LeftForeArm
              {
                OFFSET 0 20.4406 0
                CHANNELS 3 Zrotation Xrotation Yrotation
                JOINT LeftForeArmRoll
                {
                  OFFSET 0 7.87515 0
                  CHANNELS 3 Zrotation Xrotation Yrotation
                  JOINT LeftHand
                  {
                    OFFSET 0 15.8037 0
                    CHANNELS 3 Zrotation Xrotation Yrotation
                    End Site
                    {
                      OFFSET 0 0 0
                    }
                  }
                }
              }
            }
          }
        }
      }
    }
  }
  JOINT RightUpLeg
  {
    OFFSET -7.06048 -1.2947 -1.08609
    CHANNELS 3 Zrotation Xrotation Yrotation
    JOINT RightUpLegRoll
    {
      OFFSET 0 18.5308 0
      CHANNELS 3 Zrotation Xrotation Yrotation
      JOINT RightLeg
      {
        OFFSET 0 -22.9476 0
        CHANNELS 3 Zrotation Xrotation Yrotation
        JOINT RightLegRoll
        {
          OFFSET 0 23.0226 0
          CHANNELS 3 Zrotation Xrotation Yrotation
          JOINT RightFoot
          {
            OFFSET 0 19.1625 0
            CHANNELS 3 Zrotation Xrotation Yrotation
            JOINT RightToeBase
            {
              OFFSET 0 16.0188 0
              CHANNELS 3 Zrotation Xrotation Yrotation
              End Site
              {
                OFFSET 0.00678979 7.75782 -0.894207
              }
            }
          }
        }
      }
    }
  }
  JOINT LeftUpLeg
  {
    OFFSET 7.06048 -1.2947 -1.08609
    CHANNELS 3 Zrotation Xrotation Yrotation
    JOINT LeftUpLegRoll
    {
      OFFSET 0 18.5309 0
      CHANNELS 3 Zrotation Xrotation Yrotation
      JOINT LeftLeg
      {
        OFFSET 0 22.9475 0
        CHANNELS 3 Zrotation Xrotation Yrotation
        JOINT LeftLegRoll
        {
          OFFSET 0 23.2355 0
          CHANNELS 3 Zrotation Xrotation Yrotation
          JOINT LeftFoot
          {
            OFFSET 0 18.9496 0
            CHANNELS 3 Zrotation Xrotation Yrotation
            JOINT LeftToeBase
            {
              OFFSET 0 16.0188 0
              CHANNELS 3 Zrotation Xrotation Yrotation
              End Site
              {
                OFFSET -0.0304289 7.75782 -0.894206
              }
            }
          }
        }
      }
    }
  }
}
MOTION
Frames: 12
Frame Time: 0.00208333
53.4502 95.6954 12.839 -0.643761 -3.00644 -1.02203 0.268427 -1.7634 0.0612021 0.538289 0.476311 0.110347 0.537229 2.12133 0.101372 -5.95598 24.9466 2.04084 2.03463 -3.58424 0.130327 73.1379 3.61352 -0.0440184 103.957 17.8105 26.5146 -3.54404e-006 -3.2736e-006 -4.30936e-006 -2.26397 0.00461263 0.333637 -1.66012e-005 1.69313e-006 -3.0067 8.03017 -4.95135 0.697632 -75.4721 1.40207 1.32947 -99.3604 18.9704 -24.3213 -3.18055e-015 -6.36111e-015 6.36111e-015 0.892961 3.18708 -0.546923 4.78022e-006 -3.10676e-006 3.01416 -8.03029 -4.95138 -0.697642 175.711 -4.52008 -1.98629 180 7.01519e-015 178.806 177.706 3.26326 179.619 1.12461e-006 -6.64692e-007 0.0317988 -18.9817 68.1384 19.6519 8.13649 25.2327 -3.48774 -173.895 -3.11687 0.274102 4.54188e-006 -4.6773e-006 -1.22397 -1.82233 -6.22113 0.0906451 1.71781e-006 -7.34387e-006 -0.132972 20.0894 69.3778 -20.7931 -8.14185 25.3146 3.37835 
53.4499 95.6945 12.8415 -0.646959 -3.00121 -1.01977 0.26583 -1.76426 0.0603945 0.533574 0.474751 0.10789 0.532546 2.11977 0.0989887 -5.89766 24.9505 2.02795 1.9853 -3.5854 0.132101 73.15 3.59875 -0.0523902 103.9 17.7423 26.6207 -3.54404e-006 -3.2736e-006 -4.30936e-006 -2.31363 0.0258835 0.338765 -1.66012e-005 1.69313e-006 -3.0067 8.03017 -4.95135 0.697632 -75.4347 1.39879 1.32632 -99.3843 18.9681 -24.2998 -9.54166e-015 -3.18055e-015 -0 0.88054 3.16676 -0.545601 4.78022e-006 -3.10676e-006 3.01416 -8.03029 -4.95138 -0.697642 175.716 -4.52071 -1.98988 180 7.01519e-015 178.806 177.706 3.25683 179.619 1.12461e-006 -6.64692e-007 0.0317988 -18.9823 68.1391 19.6526 8.13649 25.2327 -3.48774 -173.891 -3.11343 0.271567 4.54188e-006 -4.6773e-006 -1.22399 -1.82309 -6.22063 0.0905778 1.71781e-006 -7.34387e-006 -0.132972 20.0903 69.3787 -20.794 -8.14185 25.3146 3.37873 
53.4471 95.697 12.8396 -0.650411 -2.99629 -1.01751 0.263264 -1.76509 0.0595333 0.528947 0.473239 0.10528 0.527953 2.11826 0.0964507 -5.83852 24.9559 2.0152 1.93476 -3.58802 0.134115 73.1643 3.58537 -0.0604298 103.844 17.674 26.7263 -3.54404e-006 -3.2736e-006 -4.30936e-006 -2.36321 0.046821 0.343849 -1.66012e-005 1.69313e-006 -3.0067 8.03017 -4.95135 0.697632 -75.3974 1.39592 1.32301 -99.4077 18.9658 -24.279 -5.56597e-015 3.18055e-015 -6.36111e-015 0.868486 3.14591 -0.544302 4.78022e-006 -3.10676e-006 3.01416 -8.03029 -4.95138 -0.697642 175.721 -4.52179 -1.99362 180 7.01519e-015 178.806 177.707 3.25017 179.619 1.12461e-006 -6.64692e-007 0.0317988 -18.9829 68.1398 19.6532 8.13649 25.2327 -3.48774 -173.886 -3.11019 0.268821 4.54188e-006 -4.6773e-006 -1.22403 -1.82387 -6.22046 0.0904987 1.71781e-006 -7.34387e-006 -0.132972 20.0913 69.3798 -20.7951 -8.14185 25.3145 3.37915 
53.4473 95.6978 12.8419 -0.65404 -2.99158 -1.01525 0.260719 -1.76591 0.0586342 0.524381 0.471761 0.102562 0.523424 2.11679 0.0938041 -5.77879 24.9622 2.00254 1.88336 -3.59165 0.136296 73.1801 3.57297 -0.0682357 103.79 17.6056 26.8317 -3.54404e-006 -3.2736e-006 -4.30936e-006 -2.41272 0.067524 0.348901 -1.66012e-005 1.69313e-006 -3.0067 8.03017 -4.95135 0.697632 -75.3604 1.39334 1.31959 -99.4306 18.9634 -24.2586 -7.95139e-016 -6.36111e-015 3.18055e-015 0.856691 3.1247 -0.543019 4.78022e-006 -3.10676e-006 3.01416 -8.03029 -4.95138 -0.697642 175.727 -4.5232 -1.99746 180 7.01519e-015 178.806 177.707 3.2434 179.618 1.12461e-006 -6.64692e-007 0.0317988 -18.9835 68.1405 19.6539 8.13649 25.2327 -3.48774 -173.881 -3.10709 0.265926 4.54188e-006 -4.6773e-006 -1.22406 -1.82466 -6.22052 0.0904111 1.71781e-006 -7.34387e-006 -0.132972 20.0925 69.381 -20.7964 -8.14185 25.3145 3.3796 
53.4483 95.6965 12.8408 -0.657773 -2.98699 -1.01299 0.258187 -1.76672 0.0577134 0.519852 0.470303 0.0997829 0.518931 2.11533 0.0910948 -5.71872 24.9691 1.98994 1.83146 -3.59588 0.138575 73.1967 3.56113 -0.0759063 103.735 17.5373 26.9369 -3.54404e-006 -3.2736e-006 -4.30936e-006 -2.46219 0.0880913 0.353937 -1.66012e-005 1.69313e-006 -3.0067 8.03017 -4.95135 0.697632 -75.3234 1.39092 1.3161 -99.4532 18.9609 -24.2386 -1.11319e-014 -9.54166e-015 3.18055e-015 0.845045 3.10327 -0.541746 4.78022e-006 -3.10676e-006 3.01416 -8.03029 -4.95138 -0.697642 175.732 -4.5248 -2.00137 180 7.01519e-015 178.806 177.707 3.23653 179.618 1.12461e-006 -6.64692e-007 0.0317988 -18.9841 68.1412 19.6545 8.13649 25.2327 -3.48774 -173.876 -3.10408 0.262945 4.54188e-006 -4.6773e-006 -1.22411 -1.82545 -6.22071 0.0903187 1.71781e-006 -7.34387e-006 -0.132972 20.0938 69.3823 -20.7978 -8.14184 25.3145 3.38005 
53.4439 95.6968 12.8427 -0.661533 -2.98243 -1.01074 0.255657 -1.76753 0.0567866 0.515332 0.46885 0.0969867 0.514449 2.11388 0.0883684 -5.65855 24.9762 1.97736 1.77943 -3.60027 0.14088 73.2136 3.54944 -0.0835399 103.681 17.4689 27.042 -3.54404e-006 -3.2736e-006 -4.30936e-006 -2.51166 0.108622 0.358967 -1.66012e-005 1.69313e-006 -3.0067 8.03017 -4.95135 0.697632 -75.2865 1.38855 1.3126 -99.4758 18.9585 -24.2186 2.22639e-014 1.27222e-014 1.90833e-014 0.833441 3.08178 -0.540476 4.78022e-006 -3.10676e-006 3.01416 -8.03029 -4.95138 -0.697642 175.738 -4.52644 -2.00529 180 7.01519e-015 178.806 177.708 3.22965 179.618 1.12461e-006 -6.64692e-007 0.0317988 -18.9847 68.1419 19.6552 8.13649 25.2327 -3.48774 -173.871 -3.1011 0.259941 4.54188e-006 -4.6773e-006 -1.22415 -1.82625 -6.22094 0.090225 1.71781e-006 -7.34387e-006 -0.132972 20.0951 69.3836 -20.7991 -8.14184 25.3145 3.38051 
53.4556 95.6977 12.8474 -0.665248 -2.97782 -1.00848 0.253122 -1.76835 0.0558697 0.510795 0.467388 0.0942188 0.509949 2.11242 0.0856707 -5.59854 24.983 1.96475 1.72762 -3.60438 0.143141 73.2301 3.5375 -0.091235 103.628 17.4007 27.1471 -3.54404e-006 -3.2736e-006 -4.30936e-006 -2.56115 0.129214 0.364005 -1.66012e-005 1.69313e-006 -3.0067 8.03017 -4.95135 0.697632 -75.2495 1.38611 1.30913 -99.4985 18.956 -24.1985 7.95139e-016 3.18055e-015 3.18055e-015 0.82177 3.06039 -0.539201 4.78022e-006 -3.10676e-006 3.01416 -8.03029 -4.95138 -0.697642 175.743 -4.528 -2.00919 180 7.01519e-015 178.806 177.708 3.22281 179.617 1.12461e-006 -6.64692e-007 0.0317988 -18.9853 68.1427 19.6558 8.13649 25.2327 -3.48774 -173.866 -3.09807 0.256976 4.54188e-006 -4.6773e-006 -1.2242 -1.82704 -6.22112 0.0901335 1.71781e-006 -7.34387e-006 -0.132972 20.0963 69.3849 -20.8005 -8.14184 25.3145 3.38097 
53.452 95.6989 12.8473 -0.668841 -2.97306 -1.00622 0.250573 -1.76917 0.0549788 0.506216 0.465903 0.0915244 0.505406 2.11094 0.0830473 -5.53892 24.9892 1.95207 1.6764 -3.6078 0.145286 73.2455 3.52488 -0.0990899 103.573 17.3325 27.2523 -3.54404e-006 -3.2736e-006 -4.30936e-006 -2.61069 0.149967 0.369065 -1.66012e-005 1.69313e-006 -3.0067 8.03017 -4.95135 0.697632 -75.2124 1.38347 1.30573 -99.5215 18.9536 -24.178 3.18055e-015 3.18055e-015 3.18055e-015 0.809923 3.03925 -0.537915 4.78022e-006 -3.10676e-006 3.01416 -8.03029 -4.95138 -0.697642 175.749 -4.52934 -2.01301 180 7.01519e-015 178.806 177.708 3.21605 179.617 1.12461e-006 -6.64692e-007 0.0317988 -18.9859 68.1434 19.6565 8.13649 25.2327 -3.48774 -173.861 -3.09495 0.254113 4.54188e-006 -4.6773e-006 -1.22423 -1.82782 -6.22113 0.0900477 1.71781e-006 -7.34387e-006 -0.132972 20.0975 69.3861 -20.8017 -8.14184 25.3145 3.38141 
53.4457 95.6959 12.8564 -0.672238 -2.96807 -1.00396 0.248 -1.77001 0.0541296 0.501568 0.46438 0.0889486 0.500792 2.10942 0.0805441 -5.47994 24.9942 1.93928 1.62614 -3.61009 0.147246 73.2593 3.51119 -0.107203 103.519 17.2644 27.3578 -3.54404e-006 -3.2736e-006 -4.30936e-006 -2.66031 0.170979 0.374159 -1.66012e-005 1.69313e-006 -3.0067 8.03017 -4.95135 0.697632 -75.1751 1.3805 1.30246 -99.545 18.9513 -24.157 5.56597e-015 0 6.36111e-015 0.797793 3.01852 -0.536612 4.78022e-006 -3.10676e-006 3.01416 -8.03029 -4.95138 -0.697642 175.754 -4.53032 -2.01672 180 7.01519e-015 178.806 177.709 3.20948 179.617 1.12461e-006 -6.64692e-007 0.0317988 -18.9865 68.1441 19.6571 8.13649 25.2327 -3.48774 -173.856 -3.09166 0.251415 4.54188e-006 -4.6773e-006 -1.22426 -1.8286 -6.22088 0.0899712 1.71781e-006 -7.34387e-006 -0.132972 20.0985 69.3872 -20.8028 -8.14184 25.3144 3.38182 
53.4468 95.6979 12.8568 -0.675364 -2.96275 -1.0017 0.245394 -1.77087 0.0533382 0.496826 0.462806 0.0865368 0.496081 2.10785 0.0782066 -5.42186 24.9977 1.92634 1.57718 -3.61082 0.148949 73.2707 3.496 -0.115672 103.463 17.1966 27.4637 -3.54404e-006 -3.2736e-006 -4.30936e-006 -2.71003 0.19235 0.379301 -1.66012e-005 1.69313e-006 -3.0067 8.03017 -4.95135 0.697632 -75.1376 1.3771 1.29935 -99.569 18.949 -24.1353 -2.38542e-015 3.18055e-015 3.18055e-015 0.78527 2.99836 -0.535284 4.78022e-006 -3.10676e-006 3.01416 -8.03029 -4.95138 -0.697642 175.759 -4.53081 -2.02026 180 7.01519e-015 178.806 177.709 3.20308 179.617 1.12461e-006 -6.64692e-007 0.0317988 -18.9871 68.1447 19.6578 8.13649 25.2327 -3.48774 -173.852 -3.08816 0.248944 4.54188e-006 -4.6773e-006 -1.22428 -1.82936 -6.22028 0.0899076 1.71781e-006 -7.34387e-006 -0.132972 20.0993 69.388 -20.8036 -8.14184 25.3144 3.3822 
53.4416 95.6898 12.8609 -0.678145 -2.95702 -0.999427 0.242747 -1.77175 0.0526203 0.491962 0.461165 0.084334 0.491245 2.10621 0.0760808 -5.3649 24.9992 1.9132 1.52989 -3.60956 0.150325 73.2793 3.47892 -0.124597 103.407 17.1289 27.57 -3.54404e-006 -3.2736e-006 -4.30936e-006 -2.75988 0.214178 0.384503 -1.66012e-005 1.69313e-006 -3.0067 8.03017 -4.95135 0.697632 -75.0998 1.37313 1.29646 -99.5939 18.9468 -24.1127 1.98785e-014 0 3.18055e-015 0.772246 2.97892 -0.533926 4.78022e-006 -3.10676e-006 3.01416 -8.03029 -4.95138 -0.697642 175.763 -4.53068 -2.0236 180 7.01519e-015 178.806 177.709 3.197 179.616 1.12461e-006 -6.64692e-007 0.0317988 -18.9876 68.1453 19.6583 8.13649 25.2327 -3.48774 -173.848 -3.08437 0.246764 4.54188e-006 -4.6773e-006 -1.22428 -1.83011 -6.21923 0.0898603 1.71781e-006 -7.34387e-006 -0.132972 20.0998 69.3885 -20.8042 -8.14184 25.3144 3.38253 
53.4423 95.6914 12.8636 -0.680505 -2.95079 -0.997152 0.240049 -1.77267 0.051992 0.486951 0.459445 0.0823854 0.486259 2.10449 0.0742121 -5.30934 24.9984 1.89984 1.48464 -3.60588 0.151302 73.2842 3.45951 -0.134074 103.349 17.0615 27.6768 -3.54404e-006 -3.2736e-006 -4.30936e-006 -2.8099 0.236562 0.389779 -1.66012e-005 1.69313e-006 -3.0067 8.03017 -4.95135 0.697632 -75.0616 1.36848 1.29383 -99.6198 18.9448 -24.0889 7.95139e-015 -6.36111e-015 -6.36111e-015 0.758614 2.96036 -0.532529 4.78022e-006 -3.10676e-006 3.01416 -8.03029 -4.95138 -0.697642 175.767 -4.52977 -2.02668 180 7.01519e-015 178.806 177.71 3.19123 179.616 1.12461e-006 -6.64692e-007 0.0317988 -18.9881 68.146 19.6589 8.13649 25.2327 -3.48774 -173.844 -3.08023 0.244936 4.54188e-006 -4.6773e-006 -1.22427 -1.83083 -6.21762 0.0898328 1.71781e-006 -7.34387e-006 -0.132972 20.1 69.3886 -20.8043 -8.14184 25.3144 3.3828 
